<svg version="1.0" xmlns="http://www.w3.org/2000/svg"
 width="1047.000000pt" height="482.000000pt" viewBox="0 0 1047.000000 482.000000"
 preserveAspectRatio="xMidYMid meet">

<g transform="translate(0.000000,482.000000) scale(0.100000,-0.100000)"
fill="#D48C00" stroke="none">
<path d="M6655 4441 c-40 -24 -61 -49 -80 -94 -21 -50 -19 -93 6 -145 63 -129
253 -131 319 -2 22 43 27 119 9 153 -17 32 -60 77 -91 93 -39 20 -127 18 -163
-5z"/>
<path d="M4354 4349 c-65 -56 -152 -129 -191 -162 -40 -33 -73 -63 -72 -66 0
-3 10 -33 22 -66 l22 -60 82 -3 83 -3 207 157 c115 86 212 160 217 164 4 5 -2
38 -14 74 l-22 66 -107 0 -107 0 -120 -101z"/>
<path d="M932 4382 c-9 -6 -12 -41 -10 -138 l3 -129 450 -5 c431 -5 453 -6
515 -28 139 -47 216 -114 261 -229 32 -81 32 -242 1 -324 -40 -102 -124 -178
-239 -217 -93 -32 -242 -42 -635 -42 l-358 0 0 -430 0 -430 143 0 142 0 -3
277 c-1 153 0 288 3 300 5 21 6 21 342 26 362 4 372 5 512 62 258 105 401 326
402 618 0 200 -55 342 -180 466 -42 42 -102 91 -134 110 -72 42 -201 86 -297
101 -90 15 -899 25 -918 12z"/>
<path d="M3250 3916 c-108 -24 -178 -55 -257 -113 l-33 -24 0 70 0 71 -140 0
-140 0 2 -757 3 -758 137 -3 137 -3 3 458 c4 433 5 461 25 520 42 126 99 194
203 242 47 22 72 26 173 29 l117 4 0 139 0 139 -87 -1 c-49 -1 -113 -7 -143
-13z"/>
<path d="M4115 3910 c-240 -51 -438 -218 -532 -450 -89 -220 -62 -522 64 -724
133 -213 370 -337 640 -337 448 1 771 344 750 796 -9 190 -61 334 -173 469
-83 100 -220 194 -329 225 -155 44 -279 50 -420 21z m359 -285 c88 -36 190
-132 229 -217 79 -169 72 -370 -18 -524 -93 -159 -281 -245 -472 -216 -260 40
-428 273 -398 552 15 138 59 233 147 317 99 93 190 125 343 119 81 -3 113 -9
169 -31z"/>
<path d="M7865 3915 c-94 -18 -168 -47 -240 -95 l-60 -40 -3 70 -3 70 -133 0
c-113 0 -135 -2 -140 -16 -8 -20 -8 -1458 0 -1478 5 -14 28 -16 145 -16 l139
0 0 448 c0 343 3 459 14 497 35 132 102 216 214 268 57 27 81 32 163 35 210 9
328 -77 368 -266 7 -35 11 -214 11 -517 l0 -465 139 0 140 0 4 453 c3 300 8
466 16 495 55 202 205 309 424 300 198 -7 301 -105 327 -310 5 -45 10 -274 10
-510 l0 -428 141 0 141 0 -4 503 c-4 476 -6 506 -26 580 -30 110 -76 192 -147
262 -105 105 -227 157 -399 171 -211 17 -443 -70 -561 -212 l-27 -33 -40 47
c-57 65 -102 100 -183 138 -124 60 -278 77 -430 49z"/>
<path d="M5100 3861 l-29 -59 211 -274 c116 -150 223 -289 239 -308 l27 -36
-253 -329 -253 -330 32 -60 31 -60 90 -3 90 -2 214 280 c118 154 217 280 220
280 3 0 103 -126 220 -280 l215 -281 94 3 94 3 28 62 28 62 -254 326 c-156
199 -252 331 -247 338 5 9 352 461 456 595 7 9 2 30 -18 72 l-29 60 -92 0 -93
0 -197 -255 c-108 -141 -200 -257 -203 -259 -3 -2 -96 113 -205 255 l-199 259
-93 0 -94 0 -30 -59z"/>
<path d="M6607 3913 c-4 -3 -7 -343 -7 -755 l0 -748 140 0 140 0 0 755 0 755
-133 0 c-74 0 -137 -3 -140 -7z"/>
<path d="M6431 2343 c-19 -9 -47 -37 -63 -62 -26 -41 -29 -53 -26 -107 6 -105
68 -164 173 -164 82 0 130 31 170 109 36 72 0 174 -79 222 -39 24 -128 25
-175 2z"/>
<path d="M410 2155 l0 -135 403 0 c221 0 443 -5 492 -10 323 -37 547 -212 635
-495 44 -144 36 -349 -20 -498 -67 -178 -228 -328 -419 -391 -120 -40 -186
-46 -508 -46 l-303 0 0 395 0 395 -140 0 -140 0 0 -530 0 -530 438 0 c468 0
556 6 697 47 432 124 705 488 705 937 0 283 -95 516 -287 703 -172 167 -395
262 -668 283 -66 5 -292 10 -502 10 l-383 0 0 -135z"/>
<path d="M5367 2113 c-4 -3 -7 -71 -7 -150 l0 -143 -125 0 -126 0 3 -127 3
-128 122 -3 121 -3 5 -457 c3 -369 7 -467 19 -507 57 -191 206 -295 423 -295
136 0 248 38 331 114 l47 42 -63 104 c-34 58 -63 107 -65 109 -3 2 -27 -16
-55 -39 -62 -52 -107 -69 -180 -69 -81 -1 -132 26 -156 80 -17 41 -19 79 -22
482 l-3 437 220 0 221 0 0 130 0 130 -220 0 -220 0 0 150 0 150 -133 0 c-74 0
-137 -3 -140 -7z"/>
<path d="M2955 1815 c-270 -62 -472 -249 -545 -505 -30 -102 -38 -315 -17
-417 61 -285 258 -491 548 -570 101 -28 339 -25 444 5 126 37 209 86 303 179
l84 83 -41 48 c-22 26 -62 72 -90 102 l-49 55 -23 -30 c-103 -136 -227 -195
-409 -195 -112 1 -165 11 -241 49 -81 40 -134 86 -180 155 l-40 61 23 7 c13 4
257 53 543 108 286 56 530 104 543 107 18 4 22 12 22 47 0 118 -46 276 -112
385 -84 140 -230 258 -382 307 -100 32 -284 42 -381 19z m312 -277 c75 -26
145 -77 195 -143 35 -46 76 -131 67 -138 -5 -4 -842 -167 -857 -167 -15 0 -16
67 -1 130 60 260 334 406 596 318z"/>
<path d="M4361 1820 c-293 -62 -454 -253 -420 -498 16 -112 58 -186 145 -253
76 -59 171 -92 399 -139 224 -46 314 -80 340 -130 44 -86 -15 -181 -133 -217
-78 -23 -273 -23 -362 1 -95 25 -196 74 -264 129 -33 26 -62 47 -65 47 -3 0
-35 -50 -69 -111 l-64 -112 43 -43 c80 -81 265 -159 438 -184 115 -17 325 -8
413 18 140 42 260 129 308 223 64 125 65 262 2 385 -27 53 -113 131 -178 160
-55 26 -209 67 -404 109 -209 44 -270 85 -270 180 0 101 72 158 218 175 176
20 351 -25 489 -127 l31 -23 68 117 67 117 -29 23 c-49 41 -205 111 -294 134
-96 24 -333 35 -409 19z"/>
<path d="M7636 1814 c-88 -19 -174 -56 -240 -100 l-51 -34 -3 70 -3 70 -139 0
-140 0 0 -755 0 -755 140 0 140 0 0 418 c0 239 5 445 11 482 12 81 55 175 104
229 22 24 68 56 113 79 l76 37 130 0 c121 0 135 -2 186 -26 96 -46 155 -124
179 -237 7 -35 11 -212 11 -517 l0 -465 141 0 140 0 -3 518 c-4 509 -4 518
-27 587 -65 197 -182 318 -368 381 -100 34 -288 43 -397 18z"/>
<path d="M9275 1815 c-234 -53 -408 -186 -509 -387 -59 -120 -76 -187 -83
-328 -22 -457 301 -800 752 -800 435 0 755 324 755 765 0 359 -215 646 -555
741 -81 22 -281 27 -360 9z m304 -274 c84 -26 140 -61 198 -125 143 -156 172
-399 72 -601 -43 -88 -112 -155 -206 -202 l-77 -38 -130 0 -131 0 -80 38 c-92
44 -155 104 -202 194 -42 80 -58 151 -57 263 0 235 117 405 322 471 78 25 211
25 291 0z"/>
<path d="M6380 1065 l0 -755 140 0 140 0 0 755 0 755 -140 0 -140 0 0 -755z"/>
</g>
</svg>
